<?xml version="1.0" encoding="utf-8"?>
<!-- Generator: Adobe Illustrator 13.0.0, SVG Export Plug-In . SVG Version: 6.00 Build 14948)  -->
<!DOCTYPE svg PUBLIC "-//W3C//DTD SVG 1.1//EN" "http://www.w3.org/Graphics/SVG/1.1/DTD/svg11.dtd">
<svg version="1.1" id="Icon" xmlns="http://www.w3.org/2000/svg" xmlns:xlink="http://www.w3.org/1999/xlink" x="0px" y="0px"
	 width="512px" height="512px" viewBox="0 0 512 512" enable-background="new 0 0 512 512" xml:space="preserve">
<circle fill="#005B88" cx="256" cy="256" r="256"/>
<g>
	<path fill="#FFFFFF" d="M275.674,119.873c0,0-63.33,0-84.439,0c-37.855,0-73.48,28.68-73.48,61.9
		c0,33.949,25.803,61.349,64.314,61.349c2.68,0,5.283-0.054,7.83-0.237c-2.498,4.786-4.285,10.175-4.285,15.77
		c0,9.437,5.072,17.085,11.492,23.329c-4.85,0-9.531,0.142-14.639,0.142c-46.891,0-82.979,29.86-82.979,60.828
		c0,30.501,39.563,49.577,86.455,49.577c53.455,0,82.979-30.331,82.979-60.831c0-24.456-7.215-39.102-29.525-54.878
		c-7.631-5.401-22.227-18.541-22.227-26.265c0-9.051,2.584-13.51,16.207-24.156c13.967-10.911,23.848-26.252,23.848-44.093
		c0-21.243-9.46-41.945-27.219-48.774h26.773L275.674,119.873z M246.182,326.435c0.67,2.829,1.035,5.74,1.035,8.707
		c0,24.646-15.881,43.903-61.447,43.903c-32.408,0-55.814-20.519-55.814-45.159c0-24.155,29.033-44.26,61.439-43.909
		c7.564,0.08,14.615,1.296,21.014,3.368C230,305.579,242.623,312.492,246.182,326.435z M194.289,234.514
		c-21.756-0.651-42.43-24.337-46.186-52.9c-3.754-28.572,10.834-50.436,32.582-49.79c21.75,0.654,42.432,23.578,46.188,52.145
		C230.625,212.539,216.035,235.165,194.289,234.514z"/>
	<polygon fill="#FFFFFF" points="361.688,180.381 361.688,119.873 341.52,119.873 341.52,180.381 281.012,180.381 281.012,200.549 
		341.52,200.549 341.52,261.057 361.688,261.057 361.688,200.549 422.195,200.549 422.195,180.381 	"/>
</g>
</svg>
